<svg width="32" height="32" viewBox="0 0 32 32" fill="none" xmlns="http://www.w3.org/2000/svg">
<path fill-rule="evenodd" clip-rule="evenodd" d="M21.4482 17.4131C23.0466 18.5756 24.1666 20.1506 24.1666 22.2506V26.0006H28.8332V22.2506C28.8332 19.5256 24.6682 17.9131 21.4482 17.4131Z" fill="#BCBCC1"/>
<path d="M12.4997 16C15.077 16 17.1663 13.7614 17.1663 11C17.1663 8.23858 15.077 6 12.4997 6C9.92235 6 7.83301 8.23858 7.83301 11C7.83301 13.7614 9.92235 16 12.4997 16Z" fill="#BCBCC1"/>
<path fill-rule="evenodd" clip-rule="evenodd" d="M19.5003 16C22.0787 16 24.167 13.7625 24.167 11C24.167 8.2375 22.0787 6 19.5003 6C18.952 6 18.4387 6.125 17.9487 6.3C18.9526 7.63027 19.5003 9.28925 19.5003 11C19.5003 12.7107 18.9526 14.3697 17.9487 15.7C18.4387 15.875 18.952 16 19.5003 16ZM12.5003 17.25C9.38533 17.25 3.16699 18.925 3.16699 22.25V26H21.8337V22.25C21.8337 18.925 15.6153 17.25 12.5003 17.25Z" fill="#BCBCC1"/>
</svg>
