<svg width="32" height="32" viewBox="0 0 32 32" fill="none" xmlns="http://www.w3.org/2000/svg">
<path d="M6.60558 10.8578H24.1642L24.2387 10.86C24.9034 10.8849 25.5326 11.1665 25.9941 11.6455C26.4556 12.1245 26.7135 12.7637 26.7137 13.4288V23.7146C26.7137 24.3965 26.4428 25.0506 25.9606 25.5328C25.4783 26.0151 24.8243 26.286 24.1423 26.286H7.85658C7.1746 26.286 6.52055 26.0151 6.03831 25.5328C5.55607 25.0506 5.28516 24.3965 5.28516 23.7146V13.4288L5.28644 13.341L5.29073 13.2638C5.26097 12.7796 5.3686 12.2968 5.60123 11.8711C5.83385 11.4453 6.182 11.0944 6.60558 10.8578ZM19.8566 16.8574C19.4019 16.8574 18.9659 17.038 18.6444 17.3595C18.3229 17.681 18.1423 18.117 18.1423 18.5717C18.1423 19.0264 18.3229 19.4624 18.6444 19.7839C18.9659 20.1054 19.4019 20.286 19.8566 20.286C20.3112 20.286 20.7473 20.1054 21.0688 19.7839C21.3903 19.4624 21.5709 19.0264 21.5709 18.5717C21.5709 18.117 21.3903 17.681 21.0688 17.3595C20.7473 17.038 20.3112 16.8574 19.8566 16.8574ZM24.0767 7.62169C24.1349 7.83834 24.1644 8.06167 24.1646 8.28598L24.1642 9.57169H10.1812L20.9276 5.80241C21.5863 5.62596 22.2882 5.71842 22.8787 6.05944C23.4693 6.40046 23.9002 6.96211 24.0767 7.62084" fill="#BCBCC1"/>
</svg>
