<svg width="32" height="32" viewBox="0 0 32 32" fill="none" xmlns="http://www.w3.org/2000/svg">
<g clip-path="url(#clip0_9392_23413)">
<path d="M26.334 11.1622V11.2352C26.334 12.0952 26.334 12.5262 26.127 12.8782C25.92 13.2302 25.543 13.4392 24.791 13.8582L23.998 14.2982C24.544 12.4502 24.727 10.4642 24.794 8.76616L24.804 8.54516L24.806 8.49316C25.457 8.71916 25.823 8.88816 26.051 9.20416C26.334 9.59716 26.334 10.1192 26.334 11.1622ZM6.33398 11.1622V11.2352C6.33398 12.0952 6.33398 12.5262 6.54098 12.8782C6.74798 13.2302 7.12498 13.4392 7.87698 13.8582L8.67098 14.2982C8.12398 12.4502 7.94098 10.4642 7.87398 8.76616L7.86398 8.54516L7.86298 8.49316C7.21098 8.71916 6.84498 8.88816 6.61698 9.20416C6.33398 9.59716 6.33398 10.1202 6.33398 11.1622Z" fill="#BCBCC1"/>
<path fill-rule="evenodd" clip-rule="evenodd" d="M20.7114 5.34724C19.2645 5.11011 17.8005 4.99404 16.3344 5.00024C14.5514 5.00024 13.0814 5.15724 11.9574 5.34724C10.8184 5.53924 10.2494 5.63524 9.77336 6.22124C9.29836 6.80724 9.32336 7.44024 9.37336 8.70624C9.54636 13.0542 10.4844 18.4862 15.5844 18.9662V22.5002H14.1544C13.9233 22.5004 13.6994 22.5805 13.5207 22.7271C13.342 22.8737 13.2197 23.0776 13.1744 23.3042L12.9844 24.2502H10.3344C10.1354 24.2502 9.94468 24.3293 9.80403 24.4699C9.66337 24.6106 9.58436 24.8013 9.58436 25.0002C9.58436 25.1991 9.66337 25.3899 9.80403 25.5306C9.94468 25.6712 10.1354 25.7502 10.3344 25.7502H22.3344C22.5333 25.7502 22.724 25.6712 22.8647 25.5306C23.0053 25.3899 23.0844 25.1991 23.0844 25.0002C23.0844 24.8013 23.0053 24.6106 22.8647 24.4699C22.724 24.3293 22.5333 24.2502 22.3344 24.2502H19.6844L19.4944 23.3042C19.4491 23.0776 19.3267 22.8737 19.148 22.7271C18.9694 22.5805 18.7454 22.5004 18.5144 22.5002H17.0844V18.9662C22.1844 18.4862 23.1234 13.0552 23.2954 8.70624C23.3454 7.44024 23.3714 6.80624 22.8954 6.22124C22.4194 5.63524 21.8504 5.53924 20.7114 5.34724Z" fill="#BCBCC1"/>
</g>
<defs>
<clipPath id="clip0_9392_23413">
<rect width="24" height="24" fill="white" transform="translate(4 3)"/>
</clipPath>
</defs>
</svg>
