<svg width="32" height="32" viewBox="0 0 32 32" fill="none" xmlns="http://www.w3.org/2000/svg">
<g clip-path="url(#clip0_9392_23396)">
<path d="M18.9124 13.4674L18.9124 13.4674C18.9937 13.3861 19.0901 13.3216 19.1963 13.2775C19.3025 13.2335 19.4163 13.2108 19.5312 13.2108C19.6461 13.2108 19.7599 13.2334 19.8661 13.2773C19.9723 13.3212 20.0688 13.3857 20.1501 13.4669C20.2314 13.5482 20.2959 13.6446 20.34 13.7508C20.384 13.857 20.4067 13.9708 20.4067 14.0857C20.4067 14.2006 20.3841 14.3144 20.3402 14.4206C20.2963 14.5268 20.2318 14.6233 20.1506 14.7046L15.2706 19.5836L15.2706 19.5836C15.18 19.6742 15.0725 19.7461 14.9542 19.7951C14.8359 19.8441 14.7091 19.8694 14.581 19.8694C14.4529 19.8694 14.3261 19.8441 14.2078 19.7951C14.0895 19.7461 13.982 19.6742 13.8914 19.5836L11.8422 17.5334C11.6833 17.3685 11.5953 17.1478 11.5973 16.9187C11.5993 16.6893 11.6913 16.4698 11.8536 16.3076C12.0158 16.1453 12.2353 16.0533 12.4647 16.0513C12.6938 16.0493 12.9144 16.1372 13.0794 16.2962L14.4936 17.7104L14.582 17.7988L14.6704 17.7104L18.9124 13.4674ZM13.5 8.125H13.5H18.4945L18.5728 8.13196C18.657 8.14862 18.733 8.19371 18.7881 8.25976C18.8443 8.32719 18.875 8.41219 18.875 8.49996V8.5V9.49446L18.868 9.57277C18.8514 9.65701 18.8063 9.73304 18.7402 9.78808C18.6728 9.84427 18.5878 9.87503 18.5 9.875H18.5H13.5055L13.4272 9.86804C13.343 9.85138 13.267 9.80629 13.2119 9.74024C13.1557 9.67281 13.125 9.58781 13.125 9.50004V9.5V8.50554L13.132 8.42723C13.1486 8.34299 13.1937 8.26696 13.2598 8.21192C13.3272 8.15573 13.4122 8.12497 13.5 8.125ZM20.0625 6.15971C19.7394 5.9732 19.373 5.87501 19 5.875H13C12.627 5.87501 12.2606 5.9732 11.9375 6.15971C11.6356 6.33405 11.3815 6.57982 11.1973 6.875H10C9.43642 6.875 8.89591 7.09888 8.4974 7.4974C8.09888 7.89591 7.875 8.43641 7.875 9V24C7.875 24.5636 8.09888 25.1041 8.4974 25.5026C8.89591 25.9011 9.43641 26.125 10 26.125H19C20.3592 26.125 21.6628 25.585 22.6239 24.6239C23.585 23.6628 24.125 22.3592 24.125 21V9C24.125 8.43641 23.9011 7.89591 23.5026 7.4974C23.1041 7.09888 22.5636 6.875 22 6.875H20.8027C20.6185 6.57982 20.3644 6.33405 20.0625 6.15971Z" fill="#BCBCC1" stroke="#BCBCC1" stroke-width="0.25"/>
</g>
<defs>
<clipPath id="clip0_9392_23396">
<rect width="24" height="24" fill="white" transform="translate(4 4)"/>
</clipPath>
</defs>
</svg>
