<svg width="32" height="32" viewBox="0 0 32 32" fill="none" xmlns="http://www.w3.org/2000/svg">
<path d="M26.1838 15.8363L16.5299 6.18943C16.4604 6.11979 16.3778 6.06453 16.2869 6.02683C16.196 5.98913 16.0986 5.96973 16.0002 5.96973C15.9018 5.96973 15.8044 5.98913 15.7135 6.02683C15.6226 6.06453 15.54 6.11979 15.4705 6.18943L5.8166 15.8363C5.53535 16.1176 5.37598 16.4996 5.37598 16.898C5.37598 17.7254 6.04863 18.398 6.87598 18.398H7.89316V25.2816C7.89316 25.6965 8.22832 26.0316 8.64316 26.0316H14.5002V20.7816H17.1252V26.0316H23.3572C23.7721 26.0316 24.1072 25.6965 24.1072 25.2816V18.398H25.1244C25.5229 18.398 25.9049 18.241 26.1861 17.9574C26.7697 17.3715 26.7697 16.4222 26.1838 15.8363Z" fill="#BCBCC1"/>
</svg>
